<svg width="82" height="49" viewBox="0 0 82 49" fill="none" xmlns="http://www.w3.org/2000/svg">
<path d="M32.3616 43.9247L30.0917 49H21.8847L3.13408 7.02225V7.01869L0 0.0012408H12.7395L32.3592 43.9187L32.3616 43.9247Z" fill="#E0E0E0"/>
<path d="M38.7229 39.8268L34.6255 48.994L34.6219 48.9999L30.0917 49L32.3616 43.9247L36.4567 34.7539L38.7229 39.8268Z" fill="#E0E0E0"/>
<path d="M57.8442 43.9234L55.5767 48.9988H47.3698L25.485 0H38.2221L40.1167 4.24369L41.3574 7.01745V7.02101L45.0975 15.3992L45.0999 15.4052L47.3674 20.4746L47.3698 20.4769L57.8406 43.9234H57.8442Z" fill="#E0E0E0"/>
<path d="M82 0.00124902L62.3708 43.9519L62.3672 43.946L62.3648 43.9484V43.9519L60.1093 48.9941V49H55.5767L57.843 43.9247H57.8454L58.7371 41.9232L60.0985 38.8766L60.1009 38.873V38.8707L74.3262 7.02226L74.3298 7.0187L77.4638 0.00124902H82Z" fill="#E0E0E0"/>
<path d="M56.5114 0L53.3797 7.01745H53.3761V7.02101H53.3737L49.6253 15.417L47.3578 10.35V10.3405L50.0866 4.24369L40.1167 4.24369L38.2221 0H56.5114Z" fill="#E0E0E0"/>
</svg>
