<svg width="140" height="27" viewBox="0 0 140 27" fill="none" xmlns="http://www.w3.org/2000/svg">
<g clip-path="url(#clip0_782_346)">
<path d="M12.572 6.11757H15.7472L21.3346 20.7475L26.9654 6.11757H28.3192L20.4456 26.6667L14.1806 10.2684L7.8722 26.6667L0 6.11757H3.1752L8.7626 20.7475L13.461 8.50017L12.572 6.11757Z" fill="white"/>
<path d="M33.9556 6.11757H30.9932V26.6667H33.9556V6.11757Z" fill="white"/>
<path d="M37.2617 6.11756H40.2255V10.4329C41.2125 8.95412 42.3843 7.82331 43.7381 7.04179C45.0933 6.26163 46.5325 5.87156 48.0557 5.87156C52.9095 5.87156 55.3371 8.50152 55.3371 13.7628V26.6667H52.3733V14.0088C52.3733 13.0493 52.2949 12.174 52.1409 11.3789C51.9855 10.5838 51.7391 9.9001 51.4003 9.32381C51.0615 8.74753 50.6177 8.30309 50.0675 7.98776C49.5173 7.6738 48.8467 7.51478 48.0571 7.51478C47.3235 7.51478 46.5899 7.63846 45.8563 7.88447C45.1227 8.13047 44.4171 8.47978 43.7395 8.93238C43.0619 9.38498 42.4207 9.93951 41.8145 10.5973C41.2069 11.2552 40.6777 11.9946 40.2269 12.8168V26.6667H37.2631V6.11756H37.2617Z" fill="white"/>
<path d="M78.2445 26.6667H75.2807V23.8722C74.5471 24.7503 73.5167 25.4339 72.1909 25.9273C70.8637 26.4207 69.3265 26.6667 67.5765 26.6667C66.2493 26.6667 65.0369 26.4207 63.9365 25.9273C62.8361 25.4339 61.8967 24.7299 61.1211 23.8111C60.3441 22.8936 59.7379 21.7968 59.3011 20.5233C58.8629 19.2497 58.6445 17.8321 58.6445 16.2705C58.6445 14.7088 58.8629 13.332 59.3011 12.0584C59.7379 10.7849 60.3525 9.69487 61.1421 8.79103C61.9317 7.88719 62.8851 7.18179 63.9995 6.67482C65.1139 6.16786 66.3347 5.91505 67.6605 5.91505C69.3811 5.91505 70.8987 6.32008 72.2119 7.12742C73.5237 7.93612 74.5471 9.07917 75.2807 10.5593V0H78.2445V26.6667ZM61.6083 16.3507C61.6083 17.6935 61.7707 18.9263 62.0955 20.0489C62.4189 21.173 62.8781 22.1312 63.4717 22.9249C64.0639 23.72 64.7765 24.3371 65.6095 24.7747C66.4411 25.2137 67.3665 25.4326 68.3815 25.4326C70.4703 25.4326 72.1419 24.98 73.3977 24.0761C74.6535 23.1723 75.2807 21.9667 75.2807 20.4594V16.4322C75.2807 15.035 75.1183 13.7669 74.7935 12.6306C74.4687 11.4944 74.0109 10.5212 73.4173 9.71254C72.8251 8.9052 72.1055 8.27455 71.2585 7.82195C70.4115 7.36935 69.4805 7.14373 68.4641 7.14373C67.4477 7.14373 66.5237 7.36391 65.6921 7.80156C64.8591 8.24057 64.1395 8.86442 63.5333 9.67176C62.9257 10.4805 62.4539 11.4536 62.1151 12.5899C61.7763 13.7275 61.6069 14.9806 61.6069 16.3507H61.6083Z" fill="white"/>
<path d="M93.5316 7.14509C92.1764 7.14509 90.9416 7.26877 89.8272 7.51478C88.7114 7.76079 87.7664 8.11009 86.9908 8.56269C86.2138 9.01393 85.6076 9.55623 85.1708 10.1855C84.7326 10.8162 84.5156 11.5148 84.5156 12.2813V26.6653H81.5518V6.11756H84.5156V8.95277C85.3332 7.9932 86.519 7.24702 88.0716 6.71288C89.6228 6.17873 91.4442 5.91097 93.533 5.91097V7.14373L93.5316 7.14509Z" fill="white"/>
<path d="M99.4561 6.11757H96.4937V26.6667H99.4561V6.11757Z" fill="white"/>
<path d="M33.955 0H30.9932V3.26675H33.955V0Z" fill="white"/>
<path d="M99.4555 0H96.4937V3.26675H99.4555V0Z" fill="white"/>
<path d="M105.73 10.5552C105.73 11.4332 106.062 12.1169 106.724 12.6103C107.387 13.1036 108.213 13.5087 109.201 13.8226C110.189 14.138 111.253 14.4261 112.397 14.6857C113.54 14.9467 114.605 15.296 115.593 15.7336C116.58 16.1713 117.406 16.7611 118.07 17.5005C118.732 18.2399 119.064 19.2538 119.064 20.5423C119.064 21.4461 118.874 22.2752 118.493 23.0282C118.112 23.7825 117.576 24.4254 116.884 24.9596C116.193 25.4937 115.353 25.9123 114.366 26.2127C113.377 26.5144 112.291 26.6639 111.106 26.6639C109.554 26.6639 107.98 26.4383 106.386 25.9857C104.791 25.5345 103.458 24.9242 102.386 24.1577L103.233 23.2538C104.106 23.9117 105.208 24.439 106.534 24.8359C107.86 25.2328 109.201 25.4312 110.556 25.4312C112.249 25.4312 113.597 25.0819 114.598 24.3833C115.599 23.6847 116.1 22.7604 116.1 21.6092C116.1 20.651 115.768 19.8981 115.106 19.349C114.443 18.8012 113.617 18.3418 112.63 17.9721C111.641 17.6024 110.577 17.2667 109.433 16.965C108.291 16.6633 107.224 16.28 106.237 15.8152C105.249 15.349 104.423 14.7469 103.761 14.0075C103.097 13.2681 102.765 12.2949 102.765 11.0894C102.765 9.52769 103.385 8.27455 104.629 7.32857C105.87 6.38396 107.521 5.91097 109.582 5.91097C111.021 5.91097 112.411 6.13659 113.751 6.58919C115.091 7.04043 116.142 7.65205 116.904 8.41726L116.058 9.3211C115.493 8.66327 114.71 8.13591 113.709 7.73904C112.707 7.34216 111.627 7.14373 110.471 7.14373C109.032 7.14373 107.881 7.45226 107.021 8.06796C106.159 8.68501 105.73 9.5141 105.73 10.5539V10.5552Z" fill="white"/>
<path d="M121.161 16.3507C121.161 14.789 121.387 13.3646 121.839 12.0761C122.29 10.789 122.925 9.69215 123.743 8.78831C124.562 7.88447 125.549 7.17907 126.707 6.6721C127.863 6.16514 129.147 5.91233 130.558 5.91233C131.969 5.91233 133.295 6.13252 134.453 6.57017C135.611 7.00917 136.598 7.65341 137.417 8.50153C138.236 9.351 138.87 10.3989 139.322 11.6453C139.773 12.893 140 14.3364 140 15.981V16.0217H124.041C124.041 17.1458 124.174 18.2684 124.443 19.3911C124.712 20.5151 125.141 21.5223 125.734 22.4111C126.326 23.3028 127.094 24.0285 128.041 24.5899C128.986 25.1512 130.137 25.4326 131.49 25.4326C132.14 25.4326 132.788 25.3714 133.438 25.2477C134.087 25.124 134.708 24.9541 135.3 24.7339C135.892 24.5151 136.428 24.2542 136.908 23.9524C137.389 23.6521 137.797 23.3095 138.136 22.9249L139.067 23.7472C138.248 24.6252 137.148 25.3293 135.765 25.8634C134.381 26.3976 132.984 26.6639 131.574 26.6639C129.994 26.6639 128.562 26.4111 127.278 25.9042C125.993 25.3972 124.901 24.6918 123.998 23.788C123.095 22.8841 122.396 21.8022 121.903 20.5423C121.409 19.2824 121.163 17.8852 121.163 16.3507H121.161ZM136.994 14.789C136.796 12.2678 136.112 10.3636 134.941 9.07645C133.77 7.78933 132.295 7.14509 130.517 7.14509C128.739 7.14509 127.286 7.8369 126.158 9.22052C125.028 10.6041 124.352 12.4608 124.126 14.789H136.995H136.994Z" fill="white"/>
</g>
<defs>
<clipPath id="clip0_782_346">
<rect width="140" height="26.6667" fill="white"/>
</clipPath>
</defs>
</svg>
